                            <svg width="205" height="150" viewBox="0 0 251 273" fill="none" xmlns="http://www.w3.org/2000/svg">
                                <path d="M124 152V269M124 152L95.6265 179.916C94.0646 181.453 91.6843 181.793 89.754 180.757L31 149.201M124 152L73 124.5L32 101.5M124 152L216.5 101.5M124 152L152.769 180.313C154.381 181.898 156.855 182.206 158.805 181.063L184.5 166M124 269L212.857 220.93C214.484 220.05 215.492 218.344 215.478 216.496L215 150.5M124 269L34.57 220.397C32.9825 219.534 31.984 217.882 31.9581 216.075L31 149.201M215 150.5L241.241 136.149C244.138 134.565 244.731 130.657 242.434 128.284L216.5 101.5M215 150.5C215 150.5 205.248 155.681 199 159M216.5 101.5L242.32 75.6804C244.667 73.3335 244.117 69.3933 241.218 67.7775L158.744 21.8082C156.818 20.7346 154.416 21.0496 152.832 22.5835L124 50.5M216.5 101.5L124 50.5M124 50.5L95.6542 23.5258C94.0741 22.0222 91.7017 21.7163 89.792 22.7699L64 37M124 50.5L32 101.5M32 101.5L6.55138 75.6272C4.25149 73.289 4.7877 69.407 7.63532 67.7798L51 43M32 101.5L5.6829 127.817C3.33525 130.165 3.88553 134.106 6.78638 135.721L31 149.201" stroke="#28432E" stroke-width="7" stroke-linecap="round"/>
                                <path d="M164.821 51.6635C169.29 51.6635 171.514 57.0807 168.334 60.2213L127.513 100.531C125.566 102.454 122.434 102.454 120.487 100.531L79.6662 60.2213C76.4858 57.0807 78.7097 51.6635 83.1794 51.6635L106.932 51.6635L106.932 9C106.932 6.23858 109.171 4.00001 111.932 4.00001L135.169 4.00001C137.931 4.00001 140.169 6.23858 140.169 9.00001L140.169 51.6635L164.821 51.6635Z" fill="#EE7D01" stroke="#28432E" stroke-width="7" stroke-linecap="round" stroke-linejoin="round"/>
                            </svg>