                            <svg width="205" height="150" viewBox="0 0 205 244" fill="none" xmlns="http://www.w3.org/2000/svg">
                                <path d="M42.1245 140.5C42.6245 141 44.4245 142.3 47.6245 143.5C50.8245 144.7 69.6245 145 78.6245 145M78.6245 145C81.1245 142 86.1245 138.5 88.1245 137.5C90.1245 136.5 96.1245 134.833 100.625 134C104.791 132.833 113.625 132 117.125 132C122.625 132 136.125 142.5 148.625 145.5C153.125 146 158.625 142.5 158.625 142.5L175.125 180C172.291 183.167 163.625 191.5 163.625 191.5L160.625 194M78.6245 145C78.6245 145 71.1245 153.5 67.6245 159C68.7912 160.333 72.5245 163.3 78.1245 164.5C84.6245 165.5 87.6245 164 90.6245 161.5C93.0245 159.5 96.1245 156.5 96.1245 156.5C96.1245 156.5 101.259 157.807 104.625 158C107.944 158.19 113.125 157.5 113.125 157.5C113.125 157.5 117.625 164.5 121.125 169C123.847 172.5 130.125 178 135.625 181C145.285 186.269 160.625 194 160.625 194M160.625 194C168.125 198.5 167.145 203.5 165.645 207C162.145 213 156.458 211.667 152.625 210C146.958 206.833 126.354 194.019 133.145 198C138.145 201.277 148.164 207.5 148.164 207.5C148.164 207.5 152.625 213.5 147.645 220C143.165 224.5 135.625 224 130.625 219.5C130.625 219.5 115.555 206.518 119.145 210C122.145 212.91 129.492 218.5 129.492 218.5C129.492 218.5 134.645 225 127.625 231.5C125.125 233.5 121.625 234.5 117.125 232.5C113.525 230.9 99.7454 216.495 104.125 221.5C106.788 224.544 111.625 228.645 111.625 228.645C111.625 228.645 112.625 239.278 101.625 240.5C96.6245 240.5 93.2912 236.167 91.6245 234M28.6245 183L37.6245 187M37.6245 187C37.6245 187 41.8206 183.321 45.1245 183C48.1416 182.707 52.1245 184 53.6245 187.5C55.1245 192.5 50.6245 197.5 50.6245 197.5M37.6245 187C37.1245 189.167 33.9914 196.171 37.1245 200C41.6245 205.5 50.6245 197.5 50.6245 197.5M50.6245 197.5C50.6245 197.5 59.1245 190 64.6245 194C72.6245 201.5 64.6245 210.5 64.6245 210.5M50.6245 197.5C50.6245 197.5 38.9995 208.5 47.1245 216C52.709 221.155 64.6245 210.5 64.6245 210.5M64.6245 210.5C64.6245 210.5 73.1245 202.5 78.1245 208.5C84.6245 214 80.1245 222.5 80.1245 222.5M64.6245 210.5C64.6245 210.5 58.7245 220.4 63.1245 226C69.6245 233.5 80.1245 222.5 80.1245 222.5M80.1245 222.5C80.1245 222.5 85.6245 216.5 91.6245 221.5C97.0245 226 93.6245 231.5 91.6245 234M80.1245 222.5C79.8444 222.42 73.8037 231.409 78.1245 236.5C84.1245 242 88.7912 236.667 91.6245 234" stroke="#28432E" stroke-width="7" stroke-linecap="round"/>
                                <path d="M4.62451 103.5H200.625" stroke="#28432E" stroke-width="7"/>
                                <path d="M16.6445 55H189.645" stroke="#28432E" stroke-width="7"/>
                                <path d="M14.1247 145C14.1247 145 -6.0853 115.5 9.62451 69C21.449 34 58.6244 4 103.624 4C154.124 4 187.625 46.5 193.625 63.5C212.624 105.5 190.624 147 190.624 147" stroke="#28432E" stroke-width="7" stroke-linecap="round"/>
                                <path d="M57.6445 145C57.6445 145 48.9706 105.766 55.3202 69.0324C61.3266 34.2842 80.2105 4.5 103.069 4.5C128.721 4.5 145.738 46.6943 148.786 63.572C157.421 105.27 148.786 145 148.786 145" stroke="#28432E" stroke-width="7"/>
                                <path d="M11.6246 153.5L18.6243 131.5C18.6243 131.5 19.6243 128.5 21.6243 127.5C23.1243 126.5 26.6243 127.5 26.6243 127.5L39.1246 131.5C39.1246 131.5 42.4164 132.68 43.1246 134.5C43.8468 136.356 42.6246 139.5 42.6246 139.5L27.6243 185.5C27.6243 185.5 26.2843 188.317 24.6246 189C22.9649 189.683 19.6246 189 19.6246 189L12.6244 187L6.1246 185C6.1246 185 4.71016 184.464 4.12437 183C3.32459 181 4.12447 178.5 4.12447 178.5L6.6243 170" stroke="#28432E" stroke-width="7" stroke-linecap="round"/>
                                <path d="M180.319 128.803L189.535 149.97L196.199 165.871L199.556 174.071C199.556 174.071 200.608 176.476 200.017 178.547C199.584 180.064 198.232 180.741 198.232 180.741L191.971 183.396L185.213 186.103C185.213 186.103 181.96 187.125 180.239 186.615C178.518 186.105 176.897 183.441 176.897 183.441L157.264 139.219C157.264 139.219 155.726 136.216 156.254 134.296C156.773 132.414 159.926 130.902 159.926 130.902L171.951 125.643C171.951 125.643 175.33 124.29 176.925 125.131C179.017 125.921 180.319 128.803 180.319 128.803Z" fill="#E20011" stroke="#28432E" stroke-width="7"/>
                            </svg>