                            <svg width="251" height="145" viewBox="0 0 251 244" fill="none" xmlns="http://www.w3.org/2000/svg">
                                <path d="M39.2447 146.575C39.2447 146.575 39.0001 134.075 38.5001 131.075C37.5 128.575 20.0001 128.575 20.0001 128.575C20.0001 128.575 5.50011 128.575 5.00007 131.075C4 136.075 4 177.575 4 177.575C4 177.575 3.99998 223.575 5.00007 228.575C7.5 230.575 20.0001 230.575 20.0001 230.575C20.0001 230.575 37.5 230.575 39.0001 228.575C39.2447 218.575 39.2447 182.575 39.2447 182.575V146.575ZM39.2447 146.575L58.5002 139.075C58.5002 139.075 71.5002 132.775 79.5002 133.575C90.0002 133.575 137 164.075 137 164.075C137 164.075 164 175.575 155 194.575C143 223.575 97.0002 184.075 97.0002 184.075" stroke="#28432E" stroke-width="7"/>
                                <path d="M155 194.076L216.5 178.575C216.5 178.575 239.989 170.075 245.5 185.576C253.5 208.075 229 211.576 229 211.576C229 211.576 148 236.575 122 239.575C110 239.575 86.5 223.576 86.5 223.576C86.5 223.576 66.5 209.076 55.5 211.576C48.4358 213.181 42.8333 216.909 39 218.075" stroke="#28432E" stroke-width="7"/>
                                <path d="M153 73.0754C144.5 86.5754 148 97.5754 154.5 106.075C161 114.575 189.5 124.075 201 106.075C213.458 86.5754 217.5 64.0754 227 51.5754C228.5 48.5754 235.5 44.5754 233 44.5754C230.5 44.5754 173.5 43.0754 153 73.0754Z" fill="#94C01B" stroke="#28432E" stroke-width="7"/>
                                <path d="M127.667 40.8143C134.701 55.1324 130.065 65.7039 122.708 73.4741C115.352 81.2443 86.0114 87.698 76.4659 68.5896C66.1248 47.8888 64.4688 25.0887 56.3346 11.66C55.1582 8.51904 48.6169 3.80585 51.1031 4.06846C53.5892 4.33107 110.431 8.82685 127.667 40.8143Z" fill="#94C01B" stroke="#28432E" stroke-width="7"/>
                                <path d="M136 152.575C139.5 120.075 133.4 104.575 129 91.5754C118 59.0754 94.731 43.5 94.731 43.5" stroke="#28432E" stroke-width="7" stroke-linecap="round"/>
                                <path d="M137.5 144.075C140.98 126.956 149.576 113.502 155 106.075C168.561 87.5088 187.231 78 187.231 78" stroke="#28432E" stroke-width="7" stroke-linecap="round"/>
                            </svg>